<svg id="Layer_1" data-name="Layer 1" xmlns="http://www.w3.org/2000/svg" xmlns:xlink="http://www.w3.org/1999/xlink" viewBox="0 0 841.89 595.28"><defs><style>.cls-1,.cls-71,.cls-82{fill:none;}.cls-2{clip-path:url(#clip-path);}.cls-3{fill:#3d5ba9;}.cls-4{clip-path:url(#clip-path-2);}.cls-5{clip-path:url(#clip-path-3);}.cls-6{clip-path:url(#clip-path-4);}.cls-7{clip-path:url(#clip-path-5);}.cls-8{clip-path:url(#clip-path-6);}.cls-9{clip-path:url(#clip-path-7);}.cls-10{clip-path:url(#clip-path-8);}.cls-11{clip-path:url(#clip-path-9);}.cls-12{isolation:isolate;}.cls-13{fill:#903505;}.cls-14{fill:#943707;}.cls-15{fill:#983909;}.cls-16{fill:#9c3a0b;}.cls-17{fill:#a03c0d;}.cls-18{fill:#a33e0f;}.cls-19{fill:#a74011;}.cls-20{fill:#ab4112;}.cls-21{fill:#af4314;}.cls-22{fill:#b34515;}.cls-23{fill:#b74716;}.cls-24{fill:#933607;}.cls-25{fill:#d3521d;}.cls-26{fill:#59a0b8;}.cls-27{fill:#579db5;}.cls-28{fill:#559ab1;}.cls-29{fill:#5296ad;}.cls-30{fill:#5093a9;}.cls-31{fill:#4e90a5;}.cls-32{fill:#4c8ca2;}.cls-33{fill:#4a899e;}.cls-34{fill:#447f93;}.cls-35{fill:#66b7d3;}.cls-36{fill:#458296;}.cls-37{fill:#4b7a24;}.cls-38{clip-path:url(#clip-path-19);}.cls-39{fill:#497723;}.cls-40{fill:#4e7d26;}.cls-41{fill:#508027;}.cls-42{fill:#538429;}.cls-43{fill:#55872a;}.cls-44{fill:#588a2b;}.cls-45{fill:#5a8d2d;}.cls-46{fill:#5d902e;}.cls-47{fill:#5f942f;}.cls-48{fill:#629730;}.cls-49{fill:#477522;}.cls-50{clip-path:url(#clip-path-20);}.cls-51{clip-path:url(#clip-path-21);}.cls-52{clip-path:url(#clip-path-22);}.cls-53{clip-path:url(#clip-path-23);}.cls-54{fill:#73ad39;}.cls-55{clip-path:url(#clip-path-24);}.cls-56{clip-path:url(#clip-path-25);}.cls-57{clip-path:url(#clip-path-26);}.cls-58{clip-path:url(#clip-path-27);}.cls-59{clip-path:url(#clip-path-28);}.cls-60{clip-path:url(#clip-path-29);}.cls-61{clip-path:url(#clip-path-30);}.cls-62{clip-path:url(#clip-path-31);}.cls-63{clip-path:url(#clip-path-32);}.cls-64{clip-path:url(#clip-path-33);}.cls-65{clip-path:url(#clip-path-34);}.cls-66{clip-path:url(#clip-path-35);}.cls-67{clip-path:url(#clip-path-36);}.cls-68{clip-path:url(#clip-path-37);}.cls-69{fill:#84c441;}.cls-70{clip-path:url(#clip-path-38);}.cls-71{stroke:#84c441;}.cls-71,.cls-82{stroke-miterlimit:10;}.cls-72{font-size:12px;fill:#939598;font-family:MyriadPro-Regular, Myriad Pro;}.cls-73{letter-spacing:-0.03em;}.cls-74{letter-spacing:-0.01em;}.cls-75{letter-spacing:0em;}.cls-76{letter-spacing:0em;}.cls-77{letter-spacing:-0.01em;}.cls-78{letter-spacing:-0.01em;}.cls-79{letter-spacing:0.01em;}.cls-80{letter-spacing:0em;}.cls-81{letter-spacing:0em;}.cls-82{stroke:#939598;}</style><clipPath id="clip-path"><path class="cls-1" d="M229.3,201.11l0-8.15c0,4.31,2.83,8.63,8.53,11.92l0,8.15C232.14,209.73,229.29,205.42,229.3,201.11Z"/></clipPath><clipPath id="clip-path-2"><path class="cls-1" d="M678.43,433.2l0,8.15a2.13,2.13,0,0,0-1.26-1.76,6.63,6.63,0,0,0-6,0,2.11,2.11,0,0,0-1.24,1.73l0-8.15a2.11,2.11,0,0,1,1.24-1.73,6.63,6.63,0,0,1,6,0A2.13,2.13,0,0,1,678.43,433.2Z"/></clipPath><clipPath id="clip-path-3"><path class="cls-1" d="M725.43,441.32l0,8.15c0,1.28-.84,2.55-2.5,3.52a13.7,13.7,0,0,1-9.71,1l0-8.15a13.7,13.7,0,0,0,9.71-1C724.6,443.87,725.43,442.59,725.43,441.32Z"/></clipPath><clipPath id="clip-path-4"><path class="cls-1" d="M713.22,445.85l0,8.15a30.34,30.34,0,0,0-9.79-1.66c-3.43,0-9,1.63-12.57,2.81l0-8.15c3.58-1.18,9.14-2.81,12.57-2.81A30.34,30.34,0,0,1,713.22,445.85Z"/></clipPath><clipPath id="clip-path-5"><path class="cls-1" d="M690.86,447l0,8.15q-1.62.65-3.35,1.17l0-8.15Q689.24,447.65,690.86,447Z"/></clipPath><clipPath id="clip-path-6"><path class="cls-1" d="M687.51,448.17l0,8.15c-10.88,3.2-24.48,2.18-33.59-3.08l0-8.15C663,450.35,676.63,451.37,687.51,448.17Z"/></clipPath><clipPath id="clip-path-7"><path class="cls-1" d="M243.92,193.37l0-8.15c0-2.19,1.44-4.39,4.32-6.06l0,8.15C245.37,189,243.93,191.17,243.92,193.37Z"/></clipPath><clipPath id="clip-path-8"><path class="cls-1" d="M230,193.35l0-8.15c0,4.31,2.83,8.63,8.53,11.92l0,8.15C232.79,202,229.94,197.67,230,193.35Z"/></clipPath><clipPath id="clip-path-9"><path class="cls-1" d="M646.06,433.59l0-8.15c0-4.26,2.81-8.51,8.4-11.75l0,8.15C648.87,425.09,646.07,429.34,646.06,433.59Z"/></clipPath><clipPath id="clip-path-19"><path class="cls-1" d="M271.91,147.11l0,8.15c-5.82-3.36-15.27-3.36-21,0l0-8.15C256.64,143.75,266.08,143.75,271.91,147.11Z"/></clipPath><clipPath id="clip-path-20"><path class="cls-1" d="M609.85,352l0,8.15a1.49,1.49,0,0,0-.43-1l0-8.15A1.49,1.49,0,0,1,609.85,352Z"/></clipPath><clipPath id="clip-path-21"><path class="cls-1" d="M683.25,393.49l0,8.15a2.84,2.84,0,0,0-1.67-2.34,8.83,8.83,0,0,0-8,0,2.82,2.82,0,0,0-1.65,2.31l0-8.15a2.82,2.82,0,0,1,1.65-2.31,8.83,8.83,0,0,1,8,0A2.84,2.84,0,0,1,683.25,393.49Z"/></clipPath><clipPath id="clip-path-22"><path class="cls-1" d="M648.66,401.54l0-8.15c0,4.31,2.83,8.62,8.53,11.92l0,8.15C651.49,410.17,648.65,405.85,648.66,401.54Z"/></clipPath><clipPath id="clip-path-23"><path class="cls-1" d="M706.46,393.6l0,8.15c0,4.25-2.81,8.48-8.37,11.71-11.25,6.54-29.54,6.54-40.87,0l0-8.15c11.33,6.54,29.62,6.54,40.87,0C703.65,402.08,706.44,397.85,706.46,393.6Z"/></clipPath><clipPath id="clip-path-24"><path class="cls-1" d="M246.52,114.67l0-8.15c0-2.19,1.44-4.38,4.32-6.05,5.78-3.36,15.22-3.36,21,0l0,8.15c-5.82-3.36-15.27-3.36-21,0C248,110.29,246.53,112.48,246.52,114.67Z"/></clipPath><clipPath id="clip-path-25"><path class="cls-1" d="M232.55,114.66l0-8.15c0,4.31,2.83,8.63,8.53,11.92l0,8.15C235.39,123.29,232.54,119,232.55,114.66Z"/></clipPath><clipPath id="clip-path-26"><path class="cls-1" d="M609.85,305.36l0,8.15a1.49,1.49,0,0,0-.43-1l0-8.15A1.49,1.49,0,0,1,609.85,305.36Z"/></clipPath><clipPath id="clip-path-27"><path class="cls-1" d="M610.22,331l0-8.15c0-1.38.91-2.76,2.71-3.8a14.61,14.61,0,0,1,13.22,0l0,8.15a14.61,14.61,0,0,0-13.22,0C611.13,328.22,610.23,329.6,610.22,331Z"/></clipPath><clipPath id="clip-path-28"><path class="cls-1" d="M647.07,333.35l0,8.15c0-1.4-.91-2.8-2.75-3.86l0-8.15C646.15,330.56,647.07,332,647.07,333.35Z"/></clipPath><clipPath id="clip-path-29"><path class="cls-1" d="M706.46,347l0,8.15c0,4.25-2.81,8.48-8.37,11.71-11.25,6.54-29.54,6.54-40.87,0l0-8.15c11.33,6.54,29.62,6.54,40.87,0C703.65,355.44,706.44,351.21,706.46,347Z"/></clipPath><clipPath id="clip-path-30"><path class="cls-1" d="M234.28,84.19l0-8.15c0,4.31,2.83,8.63,8.53,11.92l0,8.15C237.12,92.82,234.27,88.5,234.28,84.19Z"/></clipPath><clipPath id="clip-path-31"><path class="cls-1" d="M708.16,316.46l0,8.15c0,4.25-2.81,8.48-8.38,11.72-11.25,6.54-29.55,6.54-40.87,0l0-8.15c11.32,6.54,29.62,6.54,40.87,0C705.35,324.94,708.14,320.71,708.16,316.46Z"/></clipPath><clipPath id="clip-path-32"><path class="cls-1" d="M45.27,241.31l0-8.15c0,4.31,2.83,8.63,8.53,11.92l0,8.15C48.1,249.93,45.26,245.62,45.27,241.31Z"/></clipPath><clipPath id="clip-path-33"><path class="cls-1" d="M494.39,473.4l0,8.15a2.13,2.13,0,0,0-1.26-1.76,6.61,6.61,0,0,0-6,0,2.12,2.12,0,0,0-1.24,1.73l0-8.15a2.12,2.12,0,0,1,1.24-1.73,6.61,6.61,0,0,1,6,0A2.13,2.13,0,0,1,494.39,473.4Z"/></clipPath><clipPath id="clip-path-34"><path class="cls-1" d="M519.14,473.57l0,8.15c0,4.25-2.81,8.48-8.38,11.72-11.25,6.54-29.54,6.54-40.87,0l0-8.15c11.33,6.54,29.62,6.54,40.87,0C516.33,482.05,519.13,477.82,519.14,473.57Z"/></clipPath><clipPath id="clip-path-35"><path class="cls-1" d="M59.23,233.31l0-8.15c0-2.19,1.44-4.38,4.32-6l0,8.15C60.67,228.93,59.24,231.12,59.23,233.31Z"/></clipPath><clipPath id="clip-path-36"><path class="cls-1" d="M45.26,233.3l0-8.15c0,4.31,2.83,8.63,8.53,11.92l0,8.15C48.09,241.93,45.25,237.62,45.26,233.3Z"/></clipPath><clipPath id="clip-path-37"><path class="cls-1" d="M461.37,473.54l0-8.15c0-4.26,2.81-8.51,8.4-11.75l0,8.15C464.18,465,461.38,469.29,461.37,473.54Z"/></clipPath><clipPath id="clip-path-38"><path class="cls-1" d="M680.28,482.88,680.2,509a2,2,0,0,1-1.14,1.6,6.14,6.14,0,0,1-5.57,0,2,2,0,0,1-1.16-1.62l.07-26.09a2,2,0,0,0,1.16,1.62,6.14,6.14,0,0,0,5.57,0A2,2,0,0,0,680.28,482.88Z"/></clipPath></defs><title>Artboard 1</title><g class="cls-2"><path class="cls-3" d="M237.86,204.87l0,8.15c-5.7-3.29-8.54-7.61-8.53-11.92l0-8.15c0,4.31,2.83,8.63,8.53,11.92"/></g><g class="cls-4"><path class="cls-3" d="M678.43,433.2l0,8.15a2.13,2.13,0,0,0-1.26-1.76,4.61,4.61,0,0,0-.61-.29l0-8.15a4.61,4.61,0,0,1,.61.29,2.13,2.13,0,0,1,1.26,1.76"/><path class="cls-3" d="M676.56,431.15l0,8.15-.52-.17,0-8.15.52.17"/><path class="cls-3" d="M676,431l0,8.15-.44-.11,0-8.15.44.11"/><path class="cls-3" d="M675.61,430.86l0,8.15-.42-.07,0-8.15.42.07"/><path class="cls-3" d="M675.18,430.79l0,8.15-.41,0,0-8.15.41,0"/><path class="cls-3" d="M674.77,430.75l0,8.15-.42,0,0-8.15.42,0"/><path class="cls-3" d="M674.35,430.72l0,8.15h-.44l0-8.15h.44"/><path class="cls-3" d="M673.92,430.73l0,8.15-.47,0,0-8.15.47,0"/><path class="cls-3" d="M673.45,430.76l0,8.15-.54.08,0-8.15.54-.08"/><path class="cls-3" d="M672.9,430.83l0,8.15a6.17,6.17,0,0,0-.81.2l0-8.15a6.17,6.17,0,0,1,.81-.2"/><path class="cls-3" d="M672.1,431l0,8.15a4.82,4.82,0,0,0-.93.41l-.05,0,0-8.15.05,0a4.82,4.82,0,0,1,.93-.41"/><path class="cls-3" d="M671.11,431.48l0,8.15a3.3,3.3,0,0,0-.54.4l0-8.15a3.3,3.3,0,0,1,.54-.4"/><path class="cls-3" d="M670.57,431.87l0,8.15a2.45,2.45,0,0,0-.26.28l0-8.15a2.45,2.45,0,0,1,.26-.28"/><path class="cls-3" d="M670.31,432.16l0,8.15a2,2,0,0,0-.17.25l0-8.15a2,2,0,0,1,.17-.25"/><path class="cls-3" d="M670.14,432.41l0,8.15a1.72,1.72,0,0,0-.11.24l0-8.15a1.72,1.72,0,0,1,.11-.24"/><path class="cls-3" d="M670,432.65l0,8.15a1.54,1.54,0,0,0-.07.24l0-8.15a1.54,1.54,0,0,1,.07-.24"/><path class="cls-3" d="M670,432.89l0,8.15a1.45,1.45,0,0,0,0,.24l0-8.15a1.45,1.45,0,0,1,0-.24"/><path class="cls-3" d="M669.93,433.13l0,8.15v0l0-8.15v0"/></g><polygon class="cls-3" points="653.93 445.09 653.9 453.24 237.84 213.03 237.86 204.87 653.93 445.09"/><g class="cls-5"><path class="cls-3" d="M725.43,441.32l0,8.15s0,.05,0,.08l0-8.15s0-.05,0-.08"/><path class="cls-3" d="M725.43,441.39l0,8.15a3,3,0,0,1-.06.5l0-8.15a3,3,0,0,0,.06-.5"/><path class="cls-3" d="M725.37,441.89l0,8.15a3.17,3.17,0,0,1-.14.49l0-8.15a3.17,3.17,0,0,0,.14-.49"/><path class="cls-3" d="M725.23,442.38l0,8.15a3.52,3.52,0,0,1-.23.49l0-8.15a3.52,3.52,0,0,0,.23-.49"/><path class="cls-3" d="M725,442.88l0,8.15a4.08,4.08,0,0,1-.35.52l0-8.15a4.08,4.08,0,0,0,.35-.52"/><path class="cls-3" d="M724.65,443.4l0,8.15a5,5,0,0,1-.54.58l0-8.15a5,5,0,0,0,.54-.58"/><path class="cls-3" d="M724.12,444l0,8.15a6.63,6.63,0,0,1-1.08.8l0-8.15a6.63,6.63,0,0,0,1.08-.8"/><path class="cls-3" d="M723,444.77l0,8.15-.1.06a9.69,9.69,0,0,1-1.89.83l0-8.15a9.69,9.69,0,0,0,1.89-.83l.1-.06"/><path class="cls-3" d="M721,445.67l0,8.15a12.53,12.53,0,0,1-1.62.4l0-8.15a12.53,12.53,0,0,0,1.62-.4"/><path class="cls-3" d="M719.42,446.07l0,8.15c-.37.07-.74.12-1.12.16l0-8.15c.38,0,.75-.09,1.12-.16"/><path class="cls-3" d="M718.3,446.22l0,8.15q-.48,0-1,.06l0-8.15q.48,0,1-.06"/><path class="cls-3" d="M717.34,446.29l0,8.15h-.9l0-8.15h.9"/><path class="cls-3" d="M716.44,446.29l0,8.15-.86,0,0-8.15.86,0"/><path class="cls-3" d="M715.58,446.24l0,8.15-.85-.1,0-8.15.85.1"/><path class="cls-3" d="M714.73,446.15l0,8.15-.87-.15,0-8.15.87.15"/><path class="cls-3" d="M713.86,446l0,8.15-.64-.15,0-8.15.64.15"/></g><g class="cls-6"><path class="cls-3" d="M713.22,445.85l0,8.15-1.78-.53,0-8.15,1.78.53"/><path class="cls-3" d="M711.44,445.32l0,8.15c-.67-.19-1.41-.38-2.24-.56l0-8.15c.83.17,1.57.37,2.24.56"/><path class="cls-3" d="M709.2,444.77l0,8.15c-.52-.11-1.08-.21-1.67-.29l0-8.15c.6.08,1.15.18,1.67.29"/><path class="cls-3" d="M707.53,444.47l0,8.15c-.51-.07-1-.13-1.61-.18l0-8.15c.57,0,1.1.11,1.61.18"/><path class="cls-3" d="M705.92,444.3l0,8.15c-.54,0-1.1-.08-1.7-.09l0-8.15c.6,0,1.16,0,1.7.09"/><path class="cls-3" d="M704.22,444.2l0,8.15H703l0-8.15h1.22"/><path class="cls-3" d="M703,444.2l0,8.15c-.33,0-.68,0-1,.07l0-8.15c.36,0,.71-.06,1-.07"/><path class="cls-3" d="M702,444.27l0,8.15c-.64.06-1.32.16-2,.29l0-8.15c.71-.13,1.39-.23,2-.29"/><path class="cls-3" d="M699.94,444.57l0,8.15a68.93,68.93,0,0,0-8.28,2.18l0-8.15a68.93,68.93,0,0,1,8.28-2.18"/><path class="cls-3" d="M691.66,446.74l0,8.15-.8.26,0-8.15.8-.26"/></g><g class="cls-7"><path class="cls-3" d="M690.86,447l0,8.15q-1.26.51-2.59.93l0-8.15q1.33-.43,2.59-.93"/><path class="cls-3" d="M688.27,447.93l0,8.15-.76.23,0-8.15.76-.23"/></g><g class="cls-8"><path class="cls-3" d="M687.51,448.17l0,8.15a43,43,0,0,1-4.49,1.06l0-8.15a43,43,0,0,0,4.49-1.06"/><path class="cls-3" d="M683,449.23l0,8.15c-1.23.22-2.47.4-3.73.52l0-8.15c1.26-.13,2.51-.3,3.73-.52"/><path class="cls-3" d="M679.29,449.75l0,8.15q-1.59.16-3.21.21l0-8.15q1.61-.06,3.21-.21"/><path class="cls-3" d="M676.09,450l0,8.15q-1.48.05-3,0l0-8.15q1.48,0,3,0"/><path class="cls-3" d="M673.12,450l0,8.15q-1.43,0-2.84-.15l0-8.15q1.42.12,2.84.15"/><path class="cls-3" d="M670.28,449.82l0,8.15q-1.41-.12-2.81-.31l0-8.15q1.39.2,2.81.31"/><path class="cls-3" d="M667.47,449.51l0,8.15q-1.44-.2-2.85-.5l0-8.15q1.41.29,2.85.5"/><path class="cls-3" d="M664.62,449l0,8.15q-1.54-.32-3-.74l0-8.15q1.48.42,3,.74"/><path class="cls-3" d="M661.6,448.27l0,8.15c-1.19-.34-2.36-.73-3.48-1.17l0-8.15c1.12.44,2.28.83,3.48,1.17"/><path class="cls-3" d="M658.12,447.1l0,8.15a31.41,31.41,0,0,1-4.2-2l0-8.15a31.41,31.41,0,0,0,4.2,2"/></g><path class="cls-3" d="M722.88,437.74c3.38,1.95,3.4,5.15,0,7.1a13.7,13.7,0,0,1-9.71,1,30.34,30.34,0,0,0-9.79-1.66c-3.43,0-9,1.63-12.57,2.81q-1.62.65-3.35,1.17c-10.88,3.2-24.48,2.18-33.59-3.08L237.86,204.87c-11.33-6.54-11.38-17.14-.13-23.67s29.54-6.54,40.87,0L694.5,421.33Zm-51.7-2.82a6.63,6.63,0,0,0,6,0c1.66-1,1.65-2.52,0-3.49a6.63,6.63,0,0,0-6,0c-1.66,1-1.65,2.52,0,3.48"/><g class="cls-9"><path class="cls-3" d="M248.26,179.16l0,8.15-.18.11,0-8.15.18-.11"/><path class="cls-3" d="M248.08,179.27l0,8.15a11.5,11.5,0,0,0-1.88,1.39l0-8.15a11.5,11.5,0,0,1,1.88-1.39"/><path class="cls-3" d="M246.21,180.66l0,8.15a8.57,8.57,0,0,0-.92,1l0-8.15a8.57,8.57,0,0,1,.92-1"/><path class="cls-3" d="M245.28,181.65l0,8.15a7,7,0,0,0-.6.89l0-8.15a7,7,0,0,1,.6-.89"/><path class="cls-3" d="M244.68,182.54l0,8.15a6,6,0,0,0-.4.85l0-8.15a6,6,0,0,1,.4-.85"/><path class="cls-3" d="M244.29,183.39l0,8.15a5.42,5.42,0,0,0-.24.84l0-8.15a5.42,5.42,0,0,1,.24-.84"/><path class="cls-3" d="M244,184.23l0,8.15a5.11,5.11,0,0,0-.1.86l0-8.15a5.11,5.11,0,0,1,.1-.86"/><path class="cls-3" d="M243.95,185.08l0,8.15s0,.09,0,.13l0-8.15s0-.09,0-.13"/></g><g class="cls-10"><path class="cls-3" d="M238.51,197.12l0,8.15c-5.7-3.29-8.55-7.61-8.53-11.92l0-8.15c0,4.31,2.83,8.63,8.53,11.92"/></g><g class="cls-11"><path class="cls-3" d="M654.48,413.69l0,8.15-.35.21,0-8.15.35-.21"/><path class="cls-3" d="M654.13,413.9l0,8.15a22.4,22.4,0,0,0-3.66,2.71l0-8.15a22.4,22.4,0,0,1,3.66-2.71"/><path class="cls-3" d="M650.47,416.61l0,8.15a16.65,16.65,0,0,0-1.79,1.93l0-8.15a16.65,16.65,0,0,1,1.79-1.93"/><path class="cls-3" d="M648.68,418.54l0,8.15a13.62,13.62,0,0,0-1.16,1.73l0-8.15a13.62,13.62,0,0,1,1.16-1.73"/><path class="cls-3" d="M647.51,420.26l0,8.15a11.7,11.7,0,0,0-.77,1.64l0-8.15a11.7,11.7,0,0,1,.77-1.64"/><path class="cls-3" d="M646.74,421.9l0,8.15a10.5,10.5,0,0,0-.47,1.63l0-8.15a10.5,10.5,0,0,1,.47-1.63"/><path class="cls-3" d="M646.28,423.53l0,8.15a9.88,9.88,0,0,0-.19,1.66l0-8.15a9.88,9.88,0,0,1,.19-1.66"/><path class="cls-3" d="M646.09,425.19l0,8.15q0,.13,0,.25l0-8.15q0-.13,0-.25"/></g><path class="cls-3" d="M654.48,413.69c-11.25,6.54-11.19,17.12.11,23.66L238.51,197.12c-11.33-6.54-11.39-17.13-.13-23.67l9.89,5.71c-5.78,3.36-5.75,8.83.06,12.19L560,371.3l41.25,14.84a6.28,6.28,0,0,0,4.76-.42Z"/><polygon class="cls-3" points="654.59 437.35 654.57 445.5 238.49 205.27 238.51 197.12 654.59 437.35"/><g class="cls-12"><g class="cls-12"><g class="cls-2"><g class="cls-12"><path class="cls-13" d="M237.86,204.87l0,8.15c-5.7-3.29-8.54-7.61-8.53-11.92l0-8.15c0,4.31,2.83,8.63,8.53,11.92"/></g></g></g><g class="cls-12"><g class="cls-4"><g class="cls-12"><path class="cls-13" d="M678.43,433.2l0,8.15a2.13,2.13,0,0,0-1.26-1.76,4.61,4.61,0,0,0-.61-.29l0-8.15a4.61,4.61,0,0,1,.61.29,2.13,2.13,0,0,1,1.26,1.76"/><path class="cls-14" d="M676.56,431.15l0,8.15-.52-.17,0-8.15.52.17"/><path class="cls-15" d="M676,431l0,8.15-.44-.11,0-8.15.44.11"/><path class="cls-16" d="M675.61,430.86l0,8.15-.42-.07,0-8.15.42.07"/><path class="cls-17" d="M675.18,430.79l0,8.15-.41,0,0-8.15.41,0"/><path class="cls-18" d="M674.77,430.75l0,8.15-.42,0,0-8.15.42,0"/><path class="cls-19" d="M674.35,430.72l0,8.15h-.44l0-8.15h.44"/><path class="cls-20" d="M673.92,430.73l0,8.15-.47,0,0-8.15.47,0"/><path class="cls-21" d="M673.45,430.76l0,8.15-.54.08,0-8.15.54-.08"/><path class="cls-22" d="M672.9,430.83l0,8.15a6.17,6.17,0,0,0-.81.2l0-8.15a6.17,6.17,0,0,1,.81-.2"/><path class="cls-23" d="M672.1,431l0,8.15a4.82,4.82,0,0,0-.93.41l-.05,0,0-8.15.05,0a4.82,4.82,0,0,1,.93-.41"/><path class="cls-22" d="M671.11,431.48l0,8.15a3.3,3.3,0,0,0-.54.4l0-8.15a3.3,3.3,0,0,1,.54-.4"/><path class="cls-21" d="M670.57,431.87l0,8.15a2.45,2.45,0,0,0-.26.28l0-8.15a2.45,2.45,0,0,1,.26-.28"/><path class="cls-20" d="M670.31,432.16l0,8.15a2,2,0,0,0-.17.25l0-8.15a2,2,0,0,1,.17-.25"/><path class="cls-19" d="M670.14,432.41l0,8.15a1.72,1.72,0,0,0-.11.24l0-8.15a1.72,1.72,0,0,1,.11-.24"/><path class="cls-18" d="M670,432.65l0,8.15a1.54,1.54,0,0,0-.07.24l0-8.15a1.54,1.54,0,0,1,.07-.24"/><path class="cls-17" d="M670,432.89l0,8.15a1.45,1.45,0,0,0,0,.24l0-8.15a1.45,1.45,0,0,1,0-.24"/><path class="cls-16" d="M669.93,433.13l0,8.15v0l0-8.15v0"/></g></g></g><polygon class="cls-24" points="653.93 445.09 653.9 453.24 237.84 213.03 237.86 204.87 653.93 445.09"/><g class="cls-12"><g class="cls-5"><g class="cls-12"><path class="cls-16" d="M725.43,441.32l0,8.15s0,.05,0,.08l0-8.15s0-.05,0-.08"/><path class="cls-17" d="M725.43,441.39l0,8.15a3,3,0,0,1-.06.5l0-8.15a3,3,0,0,0,.06-.5"/><path class="cls-18" d="M725.37,441.89l0,8.15a3.17,3.17,0,0,1-.14.49l0-8.15a3.17,3.17,0,0,0,.14-.49"/><path class="cls-19" d="M725.23,442.38l0,8.15a3.52,3.52,0,0,1-.23.49l0-8.15a3.52,3.52,0,0,0,.23-.49"/><path class="cls-20" d="M725,442.88l0,8.15a4.08,4.08,0,0,1-.35.52l0-8.15a4.08,4.08,0,0,0,.35-.52"/><path class="cls-21" d="M724.65,443.4l0,8.15a5,5,0,0,1-.54.58l0-8.15a5,5,0,0,0,.54-.58"/><path class="cls-22" d="M724.12,444l0,8.15a6.63,6.63,0,0,1-1.08.8l0-8.15a6.63,6.63,0,0,0,1.08-.8"/><path class="cls-23" d="M723,444.77l0,8.15-.1.06a9.69,9.69,0,0,1-1.89.83l0-8.15a9.69,9.69,0,0,0,1.89-.83l.1-.06"/><path class="cls-22" d="M721,445.67l0,8.15a12.53,12.53,0,0,1-1.62.4l0-8.15a12.53,12.53,0,0,0,1.62-.4"/><path class="cls-21" d="M719.42,446.07l0,8.15c-.37.07-.74.12-1.12.16l0-8.15c.38,0,.75-.09,1.12-.16"/><path class="cls-20" d="M718.3,446.22l0,8.15q-.48,0-1,.06l0-8.15q.48,0,1-.06"/><path class="cls-19" d="M717.34,446.29l0,8.15h-.9l0-8.15h.9"/><path class="cls-18" d="M716.44,446.29l0,8.15-.86,0,0-8.15.86,0"/><path class="cls-17" d="M715.58,446.24l0,8.15-.85-.1,0-8.15.85.1"/><path class="cls-16" d="M714.73,446.15l0,8.15-.87-.15,0-8.15.87.15"/><path class="cls-15" d="M713.86,446l0,8.15-.64-.15,0-8.15.64.15"/></g></g></g><g class="cls-12"><g class="cls-6"><g class="cls-12"><path class="cls-14" d="M713.22,445.85l0,8.15-1.78-.53,0-8.15,1.78.53"/><path class="cls-15" d="M711.44,445.32l0,8.15c-.67-.19-1.41-.38-2.24-.56l0-8.15c.83.17,1.57.37,2.24.56"/><path class="cls-16" d="M709.2,444.77l0,8.15c-.52-.11-1.08-.21-1.67-.29l0-8.15c.6.08,1.15.18,1.67.29"/><path class="cls-17" d="M707.53,444.47l0,8.15c-.51-.07-1-.13-1.61-.18l0-8.15c.57,0,1.1.11,1.61.18"/><path class="cls-18" d="M705.92,444.3l0,8.15c-.54,0-1.1-.08-1.7-.09l0-8.15c.6,0,1.16,0,1.7.09"/><path class="cls-19" d="M704.22,444.2l0,8.15H703l0-8.15h1.22"/><path class="cls-20" d="M703,444.2l0,8.15c-.33,0-.68,0-1,.07l0-8.15c.36,0,.71-.06,1-.07"/><path class="cls-21" d="M702,444.27l0,8.15c-.64.06-1.32.16-2,.29l0-8.15c.71-.13,1.39-.23,2-.29"/><path class="cls-22" d="M699.94,444.57l0,8.15a68.93,68.93,0,0,0-8.28,2.18l0-8.15a68.93,68.93,0,0,1,8.28-2.18"/><path class="cls-23" d="M691.66,446.74l0,8.15-.8.26,0-8.15.8-.26"/></g></g></g><g class="cls-12"><g class="cls-7"><g class="cls-12"><path class="cls-23" d="M690.86,447l0,8.15q-1.26.51-2.59.93l0-8.15q1.33-.43,2.59-.93"/><path class="cls-22" d="M688.27,447.93l0,8.15-.76.23,0-8.15.76-.23"/></g></g></g><g class="cls-12"><g class="cls-8"><g class="cls-12"><path class="cls-22" d="M687.51,448.17l0,8.15a43,43,0,0,1-4.49,1.06l0-8.15a43,43,0,0,0,4.49-1.06"/><path class="cls-21" d="M683,449.23l0,8.15c-1.23.22-2.47.4-3.73.52l0-8.15c1.26-.13,2.51-.3,3.73-.52"/><path class="cls-20" d="M679.29,449.75l0,8.15q-1.59.16-3.21.21l0-8.15q1.61-.06,3.21-.21"/><path class="cls-19" d="M676.09,450l0,8.15q-1.48.05-3,0l0-8.15q1.48,0,3,0"/><path class="cls-18" d="M673.12,450l0,8.15q-1.43,0-2.84-.15l0-8.15q1.42.12,2.84.15"/><path class="cls-17" d="M670.28,449.82l0,8.15q-1.41-.12-2.81-.31l0-8.15q1.39.2,2.81.31"/><path class="cls-16" d="M667.47,449.51l0,8.15q-1.44-.2-2.85-.5l0-8.15q1.41.29,2.85.5"/><path class="cls-15" d="M664.62,449l0,8.15q-1.54-.32-3-.74l0-8.15q1.48.42,3,.74"/><path class="cls-14" d="M661.6,448.27l0,8.15c-1.19-.34-2.36-.73-3.48-1.17l0-8.15c1.12.44,2.28.83,3.48,1.17"/><path class="cls-13" d="M658.12,447.1l0,8.15a31.41,31.41,0,0,1-4.2-2l0-8.15a31.41,31.41,0,0,0,4.2,2"/></g></g></g><path class="cls-25" d="M722.88,437.74c3.38,1.95,3.4,5.15,0,7.1a13.7,13.7,0,0,1-9.71,1,30.34,30.34,0,0,0-9.79-1.66c-3.43,0-9,1.63-12.57,2.81q-1.62.65-3.35,1.17c-10.88,3.2-24.48,2.18-33.59-3.08L237.86,204.87c-11.33-6.54-11.38-17.14-.13-23.67s29.54-6.54,40.87,0L694.5,421.33Zm-51.7-2.82a6.63,6.63,0,0,0,6,0c1.66-1,1.65-2.52,0-3.49a6.63,6.63,0,0,0-6,0c-1.66,1-1.65,2.52,0,3.48"/></g><g class="cls-12"><g class="cls-12"><g class="cls-9"><g class="cls-12"><path class="cls-26" d="M248.26,179.16l0,8.15-.18.11,0-8.15.18-.11"/><path class="cls-27" d="M248.08,179.27l0,8.15a11.5,11.5,0,0,0-1.88,1.39l0-8.15a11.5,11.5,0,0,1,1.88-1.39"/><path class="cls-28" d="M246.21,180.66l0,8.15a8.57,8.57,0,0,0-.92,1l0-8.15a8.57,8.57,0,0,1,.92-1"/><path class="cls-29" d="M245.28,181.65l0,8.15a7,7,0,0,0-.6.89l0-8.15a7,7,0,0,1,.6-.89"/><path class="cls-30" d="M244.68,182.54l0,8.15a6,6,0,0,0-.4.85l0-8.15a6,6,0,0,1,.4-.85"/><path class="cls-31" d="M244.29,183.39l0,8.15a5.42,5.42,0,0,0-.24.84l0-8.15a5.42,5.42,0,0,1,.24-.84"/><path class="cls-32" d="M244,184.23l0,8.15a5.11,5.11,0,0,0-.1.86l0-8.15a5.11,5.11,0,0,1,.1-.86"/><path class="cls-33" d="M243.95,185.08l0,8.15s0,.09,0,.13l0-8.15s0-.09,0-.13"/></g></g></g><g class="cls-12"><g class="cls-10"><g class="cls-12"><path class="cls-34" d="M238.51,197.12l0,8.15c-5.7-3.29-8.55-7.61-8.53-11.92l0-8.15c0,4.31,2.83,8.63,8.53,11.92"/></g></g></g><g class="cls-12"><g class="cls-11"><g class="cls-12"><path class="cls-26" d="M654.48,413.69l0,8.15-.35.21,0-8.15.35-.21"/><path class="cls-27" d="M654.13,413.9l0,8.15a22.4,22.4,0,0,0-3.66,2.71l0-8.15a22.4,22.4,0,0,1,3.66-2.71"/><path class="cls-28" d="M650.47,416.61l0,8.15a16.65,16.65,0,0,0-1.79,1.93l0-8.15a16.65,16.65,0,0,1,1.79-1.93"/><path class="cls-29" d="M648.68,418.54l0,8.15a13.62,13.62,0,0,0-1.16,1.73l0-8.15a13.62,13.62,0,0,1,1.16-1.73"/><path class="cls-30" d="M647.51,420.26l0,8.15a11.7,11.7,0,0,0-.77,1.64l0-8.15a11.7,11.7,0,0,1,.77-1.64"/><path class="cls-31" d="M646.74,421.9l0,8.15a10.5,10.5,0,0,0-.47,1.63l0-8.15a10.5,10.5,0,0,1,.47-1.63"/><path class="cls-32" d="M646.28,423.53l0,8.15a9.88,9.88,0,0,0-.19,1.66l0-8.15a9.88,9.88,0,0,1,.19-1.66"/><path class="cls-33" d="M646.09,425.19l0,8.15q0,.13,0,.25l0-8.15q0-.13,0-.25"/></g></g></g><path class="cls-35" d="M654.48,413.69c-11.25,6.54-11.19,17.12.11,23.66L238.51,197.12c-11.33-6.54-11.39-17.13-.13-23.67l9.89,5.71c-5.78,3.36-5.75,8.83.06,12.19L560,371.3l41.25,14.84a6.28,6.28,0,0,0,4.76-.42Z"/><polygon class="cls-36" points="654.59 437.35 654.57 445.5 238.49 205.27 238.51 197.12 654.59 437.35"/></g><g class="cls-12"><polygon class="cls-37" points="250.86 147.11 250.84 155.26 240.95 149.55 240.97 141.4 250.86 147.11"/><g class="cls-12"><g class="cls-38"><g class="cls-12"><path class="cls-39" d="M271.91,147.11l0,8.15a16.11,16.11,0,0,0-2.14-1l0-8.15a16.11,16.11,0,0,1,2.14,1"/><path class="cls-37" d="M269.77,146.08l0,8.15c-.58-.23-1.19-.43-1.81-.61l0-8.15c.62.18,1.22.38,1.81.61"/><path class="cls-40" d="M268,145.48l0,8.15q-.76-.22-1.55-.38l0-8.15q.79.16,1.55.38"/><path class="cls-41" d="M266.41,145.09l0,8.15q-.73-.15-1.48-.26l0-8.15q.75.11,1.48.26"/><path class="cls-42" d="M264.93,144.84l0,8.15q-.72-.1-1.45-.16l0-8.15q.73.06,1.45.16"/><path class="cls-43" d="M263.48,144.68l0,8.15q-.73-.06-1.47-.08l0-8.15q.74,0,1.47.08"/><path class="cls-44" d="M262,144.6l0,8.15q-.76,0-1.53,0l0-8.15q.76,0,1.53,0"/><path class="cls-45" d="M260.48,144.6l0,8.15q-.83,0-1.66.11l0-8.15q.82-.08,1.66-.11"/><path class="cls-46" d="M258.83,144.71l0,8.15c-.64.06-1.28.15-1.9.26l0-8.15c.62-.11,1.26-.2,1.9-.26"/><path class="cls-47" d="M256.92,145l0,8.15a21.54,21.54,0,0,0-2.82.7l0-8.15a21.54,21.54,0,0,1,2.82-.7"/><path class="cls-48" d="M254.11,145.68l0,8.15a16.75,16.75,0,0,0-3.25,1.43l0-8.15a16.75,16.75,0,0,1,3.25-1.43"/></g></g></g><polygon class="cls-37" points="583.59 327.06 583.57 335.21 271.88 155.26 271.91 147.11 583.59 327.06"/><polygon class="cls-49" points="609.42 350.99 609.4 359.14 583.57 335.21 583.59 327.06 609.42 350.99"/><g class="cls-12"><g class="cls-50"><g class="cls-12"><path class="cls-39" d="M609.85,352l0,8.15a1.49,1.49,0,0,0-.43-1l0-8.15a1.49,1.49,0,0,1,.43,1"/></g></g></g><polygon class="cls-37" points="657.09 381.64 657.06 389.79 608.6 361.81 608.63 353.66 657.09 381.64"/><g class="cls-12"><g class="cls-51"><g class="cls-12"><path class="cls-39" d="M683.25,393.49l0,8.15a2.84,2.84,0,0,0-1.67-2.34,6.13,6.13,0,0,0-.81-.39l0-8.15a6.13,6.13,0,0,1,.81.39,2.84,2.84,0,0,1,1.67,2.34"/><path class="cls-37" d="M680.76,390.76l0,8.15c-.22-.09-.45-.16-.69-.23l0-8.15c.24.07.47.14.69.23"/><path class="cls-40" d="M680.08,390.53l0,8.15-.59-.14,0-8.15.59.14"/><path class="cls-41" d="M679.49,390.38l0,8.15-.56-.1,0-8.15.56.1"/><path class="cls-42" d="M678.93,390.29l0,8.15-.55-.06,0-8.15.55.06"/><path class="cls-43" d="M678.37,390.22l0,8.15-.56,0,0-8.15.56,0"/><path class="cls-44" d="M677.82,390.19l0,8.15h-.58l0-8.15h.58"/><path class="cls-45" d="M677.24,390.2l0,8.15-.63,0,0-8.15.63,0"/><path class="cls-46" d="M676.61,390.24l0,8.15-.72.1,0-8.15.72-.1"/><path class="cls-47" d="M675.88,390.34l0,8.15a8.22,8.22,0,0,0-1.07.27l0-8.15a8.22,8.22,0,0,1,1.07-.27"/><path class="cls-48" d="M674.81,390.61l0,8.15a6.41,6.41,0,0,0-1.24.55l-.07,0,0-8.15.07,0a6.41,6.41,0,0,1,1.24-.55"/><path class="cls-47" d="M673.5,391.2l0,8.15a4.4,4.4,0,0,0-.72.53l0-8.15a4.4,4.4,0,0,1,.72-.53"/><path class="cls-46" d="M672.78,391.73l0,8.15a3.27,3.27,0,0,0-.35.38l0-8.15a3.27,3.27,0,0,1,.35-.38"/><path class="cls-45" d="M672.43,392.11l0,8.15a2.67,2.67,0,0,0-.23.34l0-8.15a2.67,2.67,0,0,1,.23-.34"/><path class="cls-44" d="M672.2,392.44l0,8.15a2.3,2.3,0,0,0-.15.32l0-8.15a2.3,2.3,0,0,1,.15-.32"/><path class="cls-43" d="M672,392.77l0,8.15a2.06,2.06,0,0,0-.09.32l0-8.15a2.06,2.06,0,0,1,.09-.32"/><path class="cls-42" d="M672,393.09l0,8.15a1.94,1.94,0,0,0,0,.33l0-8.15a1.94,1.94,0,0,1,0-.33"/><path class="cls-41" d="M671.92,393.41l0,8.15v0l0-8.15v0"/></g></g></g><g class="cls-12"><g class="cls-52"><g class="cls-12"><path class="cls-39" d="M657.21,405.31l0,8.15c-5.69-3.3-8.54-7.61-8.53-11.92l0-8.15c0,4.31,2.83,8.62,8.53,11.92"/></g></g></g><g class="cls-12"><g class="cls-53"><g class="cls-12"><path class="cls-41" d="M706.46,393.6l0,8.15q0,.13,0,.25l0-8.15q0-.13,0-.25"/><path class="cls-42" d="M706.45,393.85l0,8.15a9.85,9.85,0,0,1-.19,1.65l0-8.15a9.85,9.85,0,0,0,.19-1.65"/><path class="cls-43" d="M706.26,395.5l0,8.15a10.46,10.46,0,0,1-.46,1.62l0-8.15a10.46,10.46,0,0,0,.46-1.62"/><path class="cls-44" d="M705.8,397.12l0,8.15a11.64,11.64,0,0,1-.77,1.64l0-8.15a11.64,11.64,0,0,0,.77-1.64"/><path class="cls-45" d="M705,398.76l0,8.15a13.56,13.56,0,0,1-1.16,1.72l0-8.15a13.56,13.56,0,0,0,1.16-1.72"/><path class="cls-46" d="M703.87,400.48l0,8.15a16.59,16.59,0,0,1-1.79,1.92l0-8.15a16.59,16.59,0,0,0,1.79-1.92"/><path class="cls-47" d="M702.09,402.4l0,8.15a22.36,22.36,0,0,1-3.65,2.71l0-8.15a22.36,22.36,0,0,0,3.65-2.71"/><path class="cls-48" d="M698.43,405.1l0,8.15-.35.21a32.69,32.69,0,0,1-6.34,2.79l0-8.15a32.69,32.69,0,0,0,6.34-2.79l.35-.21"/><path class="cls-47" d="M691.74,408.1l0,8.15a41.85,41.85,0,0,1-5.47,1.36l0-8.15a41.85,41.85,0,0,0,5.47-1.36"/><path class="cls-46" d="M686.27,409.46l0,8.15c-1.21.22-2.44.39-3.69.51l0-8.15c1.24-.12,2.47-.29,3.69-.51"/><path class="cls-45" d="M682.59,410l0,8.15q-1.59.16-3.2.21l0-8.15q1.61-.05,3.2-.21"/><path class="cls-44" d="M679.39,410.18l0,8.15q-1.48.05-3,0l0-8.15q1.48,0,3,0"/><path class="cls-43" d="M676.43,410.2l0,8.15q-1.43,0-2.84-.15l0-8.15q1.42.12,2.84.15"/><path class="cls-42" d="M673.58,410l0,8.15q-1.41-.12-2.81-.31l0-8.15q1.39.2,2.81.31"/><path class="cls-41" d="M670.77,409.73l0,8.15q-1.45-.21-2.86-.5l0-8.15q1.41.29,2.86.5"/><path class="cls-40" d="M667.91,409.23l0,8.15q-1.53-.32-3-.74l0-8.15q1.48.42,3,.74"/><path class="cls-37" d="M664.9,408.5l0,8.15c-1.21-.34-2.38-.74-3.51-1.19l0-8.15c1.13.45,2.3.84,3.51,1.19"/><path class="cls-39" d="M661.38,407.31l0,8.15a31.43,31.43,0,0,1-4.17-2l0-8.15a31.43,31.43,0,0,0,4.17,2"/></g></g></g><path class="cls-54" d="M697.75,381.52c11.52,6.65,11.58,17.25.33,23.79s-29.54,6.54-40.87,0-11.37-17.13-.13-23.67l-48.46-28c1.26-.73,1.58-1.81.79-2.67l-25.83-23.93-311.69-180c-5.82-3.36-15.27-3.36-21,0L241,141.4c11.25-6.54,29.55-6.54,40.87,0ZM673.58,395.8a8.83,8.83,0,0,0,8,0c2.21-1.28,2.2-3.36,0-4.64a8.83,8.83,0,0,0-8,0c-2.21,1.28-2.2,3.36,0,4.64"/></g><g class="cls-12"><g class="cls-12"><g class="cls-55"><g class="cls-12"><path class="cls-39" d="M271.91,100.47l0,8.15a16.11,16.11,0,0,0-2.14-1l0-8.15a16.11,16.11,0,0,1,2.14,1"/><path class="cls-37" d="M269.77,99.45l0,8.15c-.58-.23-1.19-.43-1.81-.61l0-8.15c.62.18,1.22.38,1.81.61"/><path class="cls-40" d="M268,98.84l0,8.15q-.76-.22-1.55-.38l0-8.15q.79.16,1.55.38"/><path class="cls-41" d="M266.41,98.46l0,8.15q-.73-.15-1.48-.26l0-8.15q.75.11,1.48.26"/><path class="cls-42" d="M264.93,98.2l0,8.15q-.72-.1-1.45-.16l0-8.15q.73.06,1.45.16"/><path class="cls-43" d="M263.48,98l0,8.15q-.73-.06-1.47-.08L262,98q.74,0,1.47.08"/><path class="cls-44" d="M262,98l0,8.15q-.76,0-1.53,0l0-8.15q.76,0,1.53,0"/><path class="cls-45" d="M260.48,98l0,8.15q-.83,0-1.66.11l0-8.15q.82-.08,1.66-.11"/><path class="cls-46" d="M258.83,98.08l0,8.15c-.64.06-1.28.15-1.9.26l0-8.15c.62-.11,1.26-.2,1.9-.26"/><path class="cls-47" d="M256.92,98.34l0,8.15a21.54,21.54,0,0,0-2.82.7l0-8.15a21.54,21.54,0,0,1,2.82-.7"/><path class="cls-48" d="M254.11,99l0,8.15a16.75,16.75,0,0,0-3.25,1.43l-.18.11,0-8.15.18-.11A16.75,16.75,0,0,1,254.11,99"/><path class="cls-47" d="M250.68,100.58l0,8.15a11.49,11.49,0,0,0-1.88,1.39l0-8.15a11.49,11.49,0,0,1,1.88-1.39"/><path class="cls-46" d="M248.8,102l0,8.15a8.57,8.57,0,0,0-.92,1l0-8.15a8.57,8.57,0,0,1,.92-1"/><path class="cls-45" d="M247.88,103l0,8.15a7,7,0,0,0-.6.89l0-8.15a7,7,0,0,1,.6-.89"/><path class="cls-44" d="M247.28,103.85l0,8.15a6,6,0,0,0-.4.85l0-8.15a6,6,0,0,1,.4-.85"/><path class="cls-43" d="M246.88,104.7l0,8.15a5.42,5.42,0,0,0-.24.84l0-8.15a5.42,5.42,0,0,1,.24-.84"/><path class="cls-42" d="M246.64,105.54l0,8.15a5.1,5.1,0,0,0-.1.86l0-8.15a5.1,5.1,0,0,1,.1-.86"/><path class="cls-41" d="M246.55,106.39l0,8.15s0,.09,0,.13l0-8.15s0-.09,0-.13"/></g></g></g><g class="cls-12"><g class="cls-56"><g class="cls-12"><path class="cls-39" d="M241.11,118.43l0,8.15c-5.7-3.29-8.54-7.61-8.53-11.92l0-8.15c0,4.31,2.83,8.63,8.53,11.92"/></g></g></g><polygon class="cls-37" points="583.59 280.43 583.57 288.58 271.88 108.62 271.91 100.47 583.59 280.43"/><polygon class="cls-49" points="609.42 304.35 609.4 312.5 583.57 288.58 583.59 280.43 609.42 304.35"/><g class="cls-12"><g class="cls-57"><g class="cls-12"><path class="cls-39" d="M609.85,305.36l0,8.15a1.49,1.49,0,0,0-.43-1l0-8.15a1.49,1.49,0,0,1,.43,1"/></g></g></g><g class="cls-12"><g class="cls-58"><g class="cls-12"><path class="cls-39" d="M626.18,319l0,8.15a10.08,10.08,0,0,0-1.34-.64l0-8.15a10.08,10.08,0,0,1,1.34.64"/><path class="cls-37" d="M624.84,318.38l0,8.15c-.36-.14-.74-.27-1.13-.38l0-8.15c.39.11.77.24,1.13.38"/><path class="cls-40" d="M623.7,318l0,8.15q-.48-.14-1-.24l0-8.15q.5.1,1,.24"/><path class="cls-41" d="M622.73,317.76l0,8.15q-.46-.09-.93-.16l0-8.15q.47.07.93.16"/><path class="cls-42" d="M621.8,317.6l0,8.15-.91-.1,0-8.15.91.1"/><path class="cls-43" d="M620.89,317.5l0,8.15-.93,0,0-8.15.93,0"/><path class="cls-44" d="M620,317.45l0,8.15h-1l0-8.15h1"/><path class="cls-45" d="M619,317.45l0,8.15q-.52,0-1,.07l0-8.15q.52-.05,1-.07"/><path class="cls-46" d="M618,317.52l0,8.15c-.4,0-.8.1-1.2.17l0-8.15c.39-.07.79-.13,1.2-.17"/><path class="cls-47" d="M616.76,317.69l0,8.15a13.54,13.54,0,0,0-1.77.44l0-8.15a13.54,13.54,0,0,1,1.77-.44"/><path class="cls-48" d="M615,318.13l0,8.15a10.5,10.5,0,0,0-2,.9l-.11.07,0-8.15L613,319a10.5,10.5,0,0,1,2-.9"/><path class="cls-47" d="M612.84,319.09l0,8.15a7.18,7.18,0,0,0-1.17.87l0-8.15a7.18,7.18,0,0,1,1.17-.87"/><path class="cls-46" d="M611.67,320l0,8.15a5.37,5.37,0,0,0-.58.62l0-8.15a5.37,5.37,0,0,1,.58-.62"/><path class="cls-45" d="M611.09,320.58l0,8.15a4.41,4.41,0,0,0-.38.56l0-8.15a4.41,4.41,0,0,1,.38-.56"/><path class="cls-44" d="M610.71,321.14l0,8.15a3.8,3.8,0,0,0-.25.53l0-8.15a3.8,3.8,0,0,1,.25-.53"/><path class="cls-43" d="M610.46,321.67l0,8.15a3.42,3.42,0,0,0-.15.53l0-8.15a3.42,3.42,0,0,1,.15-.53"/><path class="cls-42" d="M610.31,322.2l0,8.15a3.22,3.22,0,0,0-.06.54l0-8.15a3.22,3.22,0,0,1,.06-.54"/><path class="cls-41" d="M610.25,322.74l0,8.15s0,.06,0,.08l0-8.15s0-.06,0-.08"/></g></g></g><polygon class="cls-37" points="644.31 329.5 644.29 337.65 626.15 327.17 626.17 319.02 644.31 329.5"/><g class="cls-12"><g class="cls-59"><g class="cls-12"><path class="cls-39" d="M647.07,333.35l0,8.15c0-1.4-.91-2.8-2.75-3.86l0-8.15c1.84,1.06,2.76,2.46,2.75,3.86"/></g></g></g><polygon class="cls-37" points="657.21 358.67 657.19 366.82 241.08 126.58 241.1 118.43 657.21 358.67"/><g class="cls-12"><g class="cls-60"><g class="cls-12"><path class="cls-41" d="M706.46,347l0,8.15q0,.13,0,.25l0-8.15q0-.13,0-.25"/><path class="cls-42" d="M706.45,347.21l0,8.15a9.85,9.85,0,0,1-.19,1.65l0-8.15a9.85,9.85,0,0,0,.19-1.65"/><path class="cls-43" d="M706.26,348.86l0,8.15a10.46,10.46,0,0,1-.46,1.62l0-8.15a10.46,10.46,0,0,0,.46-1.62"/><path class="cls-44" d="M705.8,350.48l0,8.15a11.64,11.64,0,0,1-.77,1.64l0-8.15a11.64,11.64,0,0,0,.77-1.64"/><path class="cls-45" d="M705,352.12l0,8.15a13.56,13.56,0,0,1-1.16,1.72l0-8.15a13.56,13.56,0,0,0,1.16-1.72"/><path class="cls-46" d="M703.87,353.84l0,8.15a16.59,16.59,0,0,1-1.79,1.92l0-8.15a16.59,16.59,0,0,0,1.79-1.92"/><path class="cls-47" d="M702.09,355.76l0,8.15a22.36,22.36,0,0,1-3.65,2.71l0-8.15a22.36,22.36,0,0,0,3.65-2.71"/><path class="cls-48" d="M698.43,358.46l0,8.15-.35.21a32.69,32.69,0,0,1-6.34,2.79l0-8.15a32.69,32.69,0,0,0,6.34-2.79l.35-.21"/><path class="cls-47" d="M691.74,361.46l0,8.15a41.85,41.85,0,0,1-5.47,1.36l0-8.15a41.85,41.85,0,0,0,5.47-1.36"/><path class="cls-46" d="M686.27,362.82l0,8.15c-1.21.22-2.44.39-3.69.51l0-8.15c1.24-.12,2.47-.29,3.69-.51"/><path class="cls-45" d="M682.59,363.33l0,8.15q-1.59.16-3.2.21l0-8.15q1.61-.05,3.2-.21"/><path class="cls-44" d="M679.39,363.55l0,8.15q-1.48.05-3,0l0-8.15q1.48,0,3,0"/><path class="cls-43" d="M676.43,363.56l0,8.15q-1.43,0-2.84-.15l0-8.15q1.42.12,2.84.15"/><path class="cls-42" d="M673.58,363.41l0,8.15q-1.41-.12-2.81-.31l0-8.15q1.39.2,2.81.31"/><path class="cls-41" d="M670.77,363.09l0,8.15q-1.45-.21-2.86-.5l0-8.15q1.41.29,2.86.5"/><path class="cls-40" d="M667.91,362.6l0,8.15q-1.53-.32-3-.74l0-8.15q1.48.42,3,.74"/><path class="cls-37" d="M664.9,361.86l0,8.15c-1.21-.34-2.38-.74-3.51-1.19l0-8.15c1.13.45,2.3.84,3.51,1.19"/><path class="cls-39" d="M661.38,360.67l0,8.15a31.43,31.43,0,0,1-4.17-2l0-8.15a31.43,31.43,0,0,0,4.17,2"/></g></g></g><path class="cls-54" d="M697.75,334.88c11.52,6.65,11.58,17.25.33,23.79s-29.54,6.54-40.87,0L241.11,118.43c-11.32-6.54-11.39-17.13-.13-23.67s29.55-6.54,40.87,0Zm-93.89-27.44a6.27,6.27,0,0,0,4.76-.42c1.26-.73,1.58-1.81.79-2.67l-25.83-23.93-311.69-180c-5.82-3.36-15.27-3.36-21,0s-5.75,8.83.07,12.19l311.69,180,41.25,14.83m27.27,29.71a14.63,14.63,0,0,0,13.22,0c3.63-2.11,3.61-5.55,0-7.66L626.18,319A14.61,14.61,0,0,0,613,319c-3.62,2.1-3.61,5.55,0,7.66l18.14,10.47"/></g><g class="cls-12"><g class="cls-12"><g class="cls-61"><g class="cls-12"><path class="cls-39" d="M242.84,88l0,8.15c-5.7-3.29-8.54-7.61-8.53-11.92l0-8.15c0,4.31,2.83,8.63,8.53,11.92"/></g></g></g><polygon class="cls-37" points="658.91 328.18 658.89 336.33 242.81 96.11 242.84 87.96 658.91 328.18"/><path class="cls-54" d="M699.48,304.41c11.49,6.63,11.55,17.23.3,23.77s-29.55,6.54-40.87,0L242.84,88c-11.32-6.54-11.38-17.14-.13-23.67s29.55-6.54,40.87,0Z"/><g class="cls-12"><g class="cls-62"><g class="cls-12"><path class="cls-41" d="M708.16,316.46l0,8.15q0,.13,0,.25l0-8.15q0-.13,0-.25"/><path class="cls-42" d="M708.15,316.71l0,8.15a9.86,9.86,0,0,1-.19,1.65l0-8.15a9.86,9.86,0,0,0,.19-1.65"/><path class="cls-43" d="M708,318.37l0,8.15a10.47,10.47,0,0,1-.47,1.62l0-8.15a10.47,10.47,0,0,0,.47-1.62"/><path class="cls-44" d="M707.5,320l0,8.15a11.65,11.65,0,0,1-.77,1.64l0-8.15a11.65,11.65,0,0,0,.77-1.64"/><path class="cls-45" d="M706.73,321.63l0,8.15a13.57,13.57,0,0,1-1.16,1.72l0-8.15a13.57,13.57,0,0,0,1.16-1.72"/><path class="cls-46" d="M705.57,323.35l0,8.15a16.6,16.6,0,0,1-1.79,1.92l0-8.15a16.6,16.6,0,0,0,1.79-1.92"/><path class="cls-47" d="M703.79,325.27l0,8.15a22.36,22.36,0,0,1-3.65,2.7l0-8.15a22.36,22.36,0,0,0,3.65-2.7"/><path class="cls-48" d="M700.13,328l0,8.15-.35.21a32.65,32.65,0,0,1-6.33,2.78l0-8.15a32.65,32.65,0,0,0,6.33-2.78l.35-.21"/><path class="cls-47" d="M693.45,331l0,8.15a41.85,41.85,0,0,1-5.47,1.36l0-8.15a41.85,41.85,0,0,0,5.47-1.36"/><path class="cls-46" d="M688,332.32l0,8.15c-1.21.22-2.44.39-3.69.51l0-8.15c1.24-.12,2.48-.29,3.69-.51"/><path class="cls-45" d="M684.29,332.84l0,8.15q-1.59.16-3.21.21l0-8.15q1.61-.06,3.21-.21"/><path class="cls-44" d="M681.09,333.05l0,8.15q-1.48.05-3,0l0-8.15q1.48,0,3,0"/><path class="cls-43" d="M678.12,333.07l0,8.15q-1.43,0-2.85-.15l0-8.15q1.42.12,2.85.15"/><path class="cls-42" d="M675.28,332.91l0,8.15q-1.41-.12-2.81-.31l0-8.15q1.39.2,2.81.31"/><path class="cls-41" d="M672.47,332.6l0,8.15q-1.45-.21-2.87-.5l0-8.15q1.41.29,2.87.5"/><path class="cls-40" d="M669.6,332.1l0,8.15q-1.53-.32-3-.74l0-8.15q1.48.42,3,.74"/><path class="cls-37" d="M666.59,331.36l0,8.15c-1.21-.34-2.38-.74-3.51-1.18l0-8.15c1.13.45,2.3.84,3.51,1.18"/><path class="cls-39" d="M663.08,330.18l0,8.15a31.38,31.38,0,0,1-4.17-2l0-8.15a31.38,31.38,0,0,0,4.17,2"/></g></g></g></g><g class="cls-12"><g class="cls-12"><g class="cls-63"><g class="cls-12"><path class="cls-13" d="M53.83,245.07l0,8.15c-5.7-3.29-8.55-7.61-8.53-11.92l0-8.15c0,4.31,2.83,8.63,8.53,11.92"/></g></g></g><g class="cls-12"><g class="cls-64"><g class="cls-12"><path class="cls-13" d="M494.39,473.4l0,8.15a2.13,2.13,0,0,0-1.26-1.76,4.63,4.63,0,0,0-.61-.29l0-8.15a4.63,4.63,0,0,1,.61.29,2.13,2.13,0,0,1,1.26,1.76"/><path class="cls-14" d="M492.52,471.35l0,8.15-.52-.17,0-8.15.52.17"/><path class="cls-15" d="M492,471.17l0,8.15-.44-.11,0-8.15.44.11"/><path class="cls-16" d="M491.56,471.07l0,8.15-.42-.07,0-8.15.42.07"/><path class="cls-17" d="M491.14,471l0,8.15-.41,0,0-8.15.41,0"/><path class="cls-18" d="M490.73,470.95l0,8.15-.42,0,0-8.15.42,0"/><path class="cls-19" d="M490.31,470.92l0,8.15h-.43l0-8.15h.43"/><path class="cls-20" d="M489.88,470.93l0,8.15-.47,0,0-8.15.47,0"/><path class="cls-21" d="M489.41,471l0,8.15-.54.08,0-8.15.54-.08"/><path class="cls-22" d="M488.86,471l0,8.15a6.15,6.15,0,0,0-.8.2l0-8.15a6.15,6.15,0,0,1,.8-.2"/><path class="cls-23" d="M488.06,471.23l0,8.15a4.81,4.81,0,0,0-.93.41l-.05,0,0-8.15.05,0a4.81,4.81,0,0,1,.93-.41"/><path class="cls-22" d="M487.08,471.67l0,8.15a3.31,3.31,0,0,0-.54.4l0-8.15a3.31,3.31,0,0,1,.54-.4"/><path class="cls-21" d="M486.54,472.07l0,8.15a2.46,2.46,0,0,0-.26.28l0-8.15a2.46,2.46,0,0,1,.26-.28"/><path class="cls-20" d="M486.27,472.36l0,8.15a2,2,0,0,0-.17.25l0-8.15a2,2,0,0,1,.17-.25"/><path class="cls-19" d="M486.1,472.61l0,8.15a1.72,1.72,0,0,0-.11.24l0-8.15a1.72,1.72,0,0,1,.11-.24"/><path class="cls-18" d="M486,472.86l0,8.15a1.55,1.55,0,0,0-.07.24l0-8.15a1.55,1.55,0,0,1,.07-.24"/><path class="cls-17" d="M485.92,473.1l0,8.15a1.45,1.45,0,0,0,0,.24l0-8.15a1.45,1.45,0,0,1,0-.24"/><path class="cls-16" d="M485.89,473.34l0,8.15v0l0-8.15v0"/></g></g></g><polygon class="cls-24" points="469.89 485.29 469.87 493.44 53.8 253.22 53.83 245.07 469.89 485.29"/><path class="cls-25" d="M510.47,461.53c11.49,6.63,11.54,17.23.29,23.77s-29.54,6.54-40.87,0L53.83,245.07c-11.33-6.54-11.39-17.13-.13-23.67s29.54-6.54,40.87,0Zm-23.33,13.6a6.64,6.64,0,0,0,6,0c1.66-1,1.64-2.52,0-3.48a6.61,6.61,0,0,0-6,0c-1.66,1-1.65,2.52,0,3.48"/><g class="cls-12"><g class="cls-65"><g class="cls-12"><path class="cls-16" d="M519.14,473.57l0,8.15q0,.13,0,.25l0-8.15q0-.13,0-.25"/><path class="cls-17" d="M519.14,473.82l0,8.15a9.85,9.85,0,0,1-.19,1.65l0-8.15a9.85,9.85,0,0,0,.19-1.65"/><path class="cls-18" d="M518.95,475.48l0,8.15a10.46,10.46,0,0,1-.47,1.62l0-8.15a10.46,10.46,0,0,0,.47-1.62"/><path class="cls-19" d="M518.48,477.1l0,8.15a11.65,11.65,0,0,1-.77,1.64l0-8.15a11.65,11.65,0,0,0,.77-1.64"/><path class="cls-20" d="M517.72,478.73l0,8.15a13.57,13.57,0,0,1-1.16,1.72l0-8.15a13.57,13.57,0,0,0,1.16-1.72"/><path class="cls-21" d="M516.56,480.45l0,8.15a16.6,16.6,0,0,1-1.79,1.92l0-8.15a16.6,16.6,0,0,0,1.79-1.92"/><path class="cls-22" d="M514.77,482.38l0,8.15a22.37,22.37,0,0,1-3.66,2.71l0-8.15a22.37,22.37,0,0,0,3.66-2.71"/><path class="cls-23" d="M511.12,485.08l0,8.15-.35.21a32.69,32.69,0,0,1-6.34,2.79l0-8.15a32.69,32.69,0,0,0,6.34-2.79l.35-.21"/><path class="cls-22" d="M504.43,488.08l0,8.15a41.85,41.85,0,0,1-5.47,1.36l0-8.15a41.85,41.85,0,0,0,5.47-1.36"/><path class="cls-21" d="M499,489.44l0,8.15c-1.21.22-2.44.39-3.69.51l0-8.15c1.24-.12,2.47-.29,3.69-.51"/><path class="cls-20" d="M495.27,490l0,8.15q-1.59.16-3.2.21l0-8.15q1.61-.05,3.2-.21"/><path class="cls-19" d="M492.07,490.17l0,8.15q-1.48.05-3,0l0-8.15q1.48,0,3,0"/><path class="cls-18" d="M489.11,490.18l0,8.15q-1.43,0-2.84-.15l0-8.15q1.42.12,2.84.15"/><path class="cls-17" d="M486.26,490l0,8.15q-1.41-.12-2.81-.31l0-8.15q1.39.2,2.81.31"/><path class="cls-16" d="M483.46,489.71l0,8.15q-1.45-.21-2.86-.5l0-8.15q1.41.29,2.86.5"/><path class="cls-15" d="M480.59,489.21l0,8.15q-1.53-.32-3-.74l0-8.15q1.48.42,3,.74"/><path class="cls-14" d="M477.58,488.48l0,8.15c-1.21-.34-2.38-.74-3.51-1.19l0-8.15c1.13.45,2.3.84,3.51,1.19"/><path class="cls-13" d="M474.07,487.29l0,8.15a31.43,31.43,0,0,1-4.17-2l0-8.15a31.43,31.43,0,0,0,4.17,2"/></g></g></g></g><g class="cls-12"><g class="cls-12"><g class="cls-66"><g class="cls-12"><path class="cls-26" d="M63.57,219.11l0,8.15-.18.11,0-8.15.18-.11"/><path class="cls-27" d="M63.39,219.21l0,8.15a11.49,11.49,0,0,0-1.88,1.39l0-8.15a11.49,11.49,0,0,1,1.88-1.39"/><path class="cls-28" d="M61.51,220.6l0,8.15a8.56,8.56,0,0,0-.92,1l0-8.15a8.56,8.56,0,0,1,.92-1"/><path class="cls-29" d="M60.59,221.6l0,8.15a7,7,0,0,0-.6.89l0-8.15a7,7,0,0,1,.6-.89"/><path class="cls-30" d="M60,222.48l0,8.15a6,6,0,0,0-.4.85l0-8.15a6,6,0,0,1,.4-.85"/><path class="cls-31" d="M59.59,223.33l0,8.15a5.42,5.42,0,0,0-.24.84l0-8.15a5.42,5.42,0,0,1,.24-.84"/><path class="cls-32" d="M59.35,224.17l0,8.15a5.1,5.1,0,0,0-.1.86l0-8.15a5.1,5.1,0,0,1,.1-.86"/><path class="cls-33" d="M59.25,225l0,8.15s0,.09,0,.13l0-8.15s0-.09,0-.13"/></g></g></g><g class="cls-12"><g class="cls-67"><g class="cls-12"><path class="cls-34" d="M53.81,237.07l0,8.15c-5.7-3.29-8.54-7.61-8.53-11.92l0-8.15c0,4.31,2.83,8.63,8.53,11.92"/></g></g></g><g class="cls-12"><g class="cls-68"><g class="cls-12"><path class="cls-26" d="M469.79,453.64l0,8.15-.35.21,0-8.15.35-.21"/><path class="cls-27" d="M469.43,453.85l0,8.15a22.39,22.39,0,0,0-3.66,2.71l0-8.15a22.39,22.39,0,0,1,3.66-2.71"/><path class="cls-28" d="M465.77,456.55l0,8.15a16.65,16.65,0,0,0-1.79,1.93l0-8.15a16.65,16.65,0,0,1,1.79-1.93"/><path class="cls-29" d="M464,458.48l0,8.15a13.62,13.62,0,0,0-1.16,1.73l0-8.15a13.62,13.62,0,0,1,1.16-1.73"/><path class="cls-30" d="M462.82,460.21l0,8.15A11.7,11.7,0,0,0,462,470l0-8.15a11.7,11.7,0,0,1,.77-1.64"/><path class="cls-31" d="M462.05,461.85l0,8.15a10.51,10.51,0,0,0-.47,1.63l0-8.15a10.51,10.51,0,0,1,.47-1.63"/><path class="cls-32" d="M461.58,463.48l0,8.15a9.88,9.88,0,0,0-.19,1.66l0-8.15a9.88,9.88,0,0,1,.19-1.66"/><path class="cls-33" d="M461.39,465.14l0,8.15q0,.13,0,.25l0-8.15q0-.13,0-.25"/></g></g></g><path class="cls-35" d="M469.79,453.64c-11.24,6.53-11.19,17.12.11,23.66L53.81,237.07c-11.32-6.54-11.38-17.14-.13-23.67l9.89,5.71c-5.78,3.36-5.75,8.83.07,12.19l311.69,180,41.24,14.84a6.27,6.27,0,0,0,4.76-.42Z"/><polygon class="cls-36" points="469.9 477.3 469.88 485.45 53.79 245.22 53.81 237.07 469.9 477.3"/></g><ellipse class="cls-69" cx="676.3" cy="509.77" rx="7.16" ry="5.14"/><g class="cls-12"><g class="cls-12"><g class="cls-70"><g class="cls-12"><path class="cls-41" d="M680.28,482.88,680.2,509v0l.07-26.09v0"/><path class="cls-42" d="M680.28,482.91,680.2,509a1.34,1.34,0,0,1,0,.23l.07-26.09a1.34,1.34,0,0,0,0-.23"/><path class="cls-43" d="M680.25,483.14l-.07,26.09a1.43,1.43,0,0,1-.06.22l.07-26.09a1.43,1.43,0,0,0,.06-.22"/><path class="cls-44" d="M680.19,483.36l-.07,26.09a1.59,1.59,0,0,1-.1.22l.07-26.09a1.59,1.59,0,0,0,.1-.22"/><path class="cls-45" d="M680.08,483.58,680,509.67a1.85,1.85,0,0,1-.16.23l.07-26.09a1.85,1.85,0,0,0,.16-.23"/><path class="cls-46" d="M679.92,483.82l-.07,26.09a2.26,2.26,0,0,1-.24.26l.07-26.09a2.26,2.26,0,0,0,.24-.26"/><path class="cls-47" d="M679.68,484.08l-.07,26.09a3.05,3.05,0,0,1-.5.37l.07-26.09a3.05,3.05,0,0,0,.5-.37"/><path class="cls-48" d="M679.18,484.45l-.07,26.09,0,0a4.46,4.46,0,0,1-.86.38l.07-26.09a4.46,4.46,0,0,0,.86-.38l0,0"/><path class="cls-47" d="M678.27,484.86l-.07,26.09a5.71,5.71,0,0,1-.75.19l.07-26.09a5.71,5.71,0,0,0,.75-.19"/><path class="cls-46" d="M677.52,485l-.07,26.09-.5.07.07-26.09.5-.07"/><path class="cls-45" d="M677,485.11l-.07,26.09-.44,0,.07-26.09.44,0"/><path class="cls-44" d="M676.58,485.14l-.07,26.09h-.4l.07-26.09h.4"/><path class="cls-43" d="M676.18,485.14l-.07,26.09-.39,0,.07-26.09.39,0"/><path class="cls-42" d="M675.79,485.12l-.07,26.09-.38,0,.07-26.09.38,0"/><path class="cls-41" d="M675.41,485.08l-.07,26.09-.39-.07L675,485l.39.07"/><path class="cls-40" d="M675,485l-.07,26.09-.41-.1.07-26.09.41.1"/><path class="cls-37" d="M674.61,484.91,674.53,511l-.48-.16.07-26.09.48.16"/><path class="cls-39" d="M674.13,484.75l-.07,26.09a4.29,4.29,0,0,1-.57-.27,2,2,0,0,1-1.16-1.62l.07-26.09a2,2,0,0,0,1.16,1.62,4.29,4.29,0,0,0,.57.27"/></g></g></g><path class="cls-54" d="M679.11,481.25c1.55.89,1.56,2.33,0,3.23a6.14,6.14,0,0,1-5.57,0c-1.54-.89-1.55-2.33,0-3.23A6.13,6.13,0,0,1,679.11,481.25Z"/></g><path class="cls-71" d="M718.15,411.36c31,1.12,55.35,15.54,55.35,32.73,0,18-26.73,32.8-59.2,32.8A98.53,98.53,0,0,1,685,472.6"/><polygon class="cls-69" points="725.33 418.07 720.8 414.8 716.28 411.53 721.38 409.25 726.47 406.96 725.9 412.52 725.33 418.07"/><polygon class="cls-69" points="687.32 479.87 683.85 475.5 680.38 471.12 685.91 470.3 691.43 469.48 689.38 474.68 687.32 479.87"/><text class="cls-72" transform="translate(483.23 532.72)"><tspan class="cls-73">F</tspan><tspan class="cls-74" x="5.53" y="0">r</tspan><tspan class="cls-75" x="9.34" y="0">o</tspan><tspan class="cls-76" x="15.92" y="0">n</tspan><tspan x="22.54" y="0">t </tspan><tspan class="cls-77" x="29.05" y="0">c</tspan><tspan class="cls-78" x="34.36" y="0">o</tspan><tspan class="cls-74" x="40.86" y="0">v</tspan><tspan class="cls-75" x="46.51" y="0">er 1</tspan></text><text class="cls-72" transform="translate(253.74 472.72)">Glue be<tspan class="cls-79" x="38.59" y="0">t</tspan><tspan class="cls-74" x="42.67" y="0">w</tspan><tspan class="cls-75" x="51.38" y="0">een: </tspan><tspan class="cls-80" x="75.09" y="0">R</tspan><tspan x="81.6" y="0">ed &amp; Blue</tspan></text><text class="cls-72" transform="translate(496.15 95.28)"><tspan class="cls-77">A</tspan><tspan x="7.27" y="0">ssemble </tspan><tspan class="cls-81" x="51.01" y="0">e</tspan><tspan x="56.99" y="0">xample</tspan></text><text class="cls-72" transform="translate(693.71 520.67)">3mm sc<tspan class="cls-74" x="38.84" y="0">r</tspan><tspan class="cls-75" x="42.65" y="0">ew</tspan></text><line class="cls-82" x1="365.97" y1="457.7" x2="375.64" y2="426.74"/><line class="cls-82" x1="370.81" y1="460.21" x2="401.76" y2="451.51"/></svg>