<svg xmlns="http://www.w3.org/2000/svg" viewBox="0 0 828.99 561.13"><defs><style>.cls-1{fill:#4752a3;}.cls-2{fill:#84c441;}.cls-3{fill:#8bc63f;}.cls-4{fill:#231f20;}.cls-5{fill:#3d5ba9;}.cls-6,.cls-9{font-size:12px;fill:#939598;font-family:MyriadPro-Regular, Myriad Pro;}.cls-7{letter-spacing:-0.02em;}.cls-8{letter-spacing:-0.01em;}.cls-9{letter-spacing:-0.01em;}.cls-10{letter-spacing:-0.01em;}.cls-11{letter-spacing:-0.01em;}.cls-12{letter-spacing:0em;}.cls-13{letter-spacing:-0.07em;}.cls-14{letter-spacing:0em;}.cls-15{letter-spacing:-0.01em;}.cls-16{letter-spacing:-0.01em;}.cls-17{letter-spacing:0.01em;}.cls-18{letter-spacing:0.01em;}.cls-19{letter-spacing:0em;}.cls-20{letter-spacing:-0.01em;}.cls-21{letter-spacing:-0.01em;}</style></defs><title>Artboard 1 copy 4</title><g id="Vector"><rect class="cls-1" x="646.88" y="426.01" width="44.28" height="18.7" rx="9.35" ry="9.35"/><path class="cls-2" d="M637.18,20.6H50.67a28.9,28.9,0,0,0,0,57.8H637.18a28.9,28.9,0,0,0,0-57.8Z"/><path class="cls-3" d="M683.37,460.58,661,455a1.7,1.7,0,0,0-2.09,1.73H647.58v11.34h11.35A1.7,1.7,0,0,0,661,469.8l22.35-5.59A2,2,0,0,0,683.37,460.58Z"/><path class="cls-2" d="M649.91,390.61h0Z"/><path class="cls-4" d="M40.79,387.14a14.88,14.88,0,0,1,0-29.76H480.15l47.3,11,.08,0a4.08,4.08,0,0,1,0,7.68l-.16,0-47.22,11Z"/><path class="cls-3" d="M524.88,411.44l-47-10.94H42.79a12.76,12.76,0,0,0,0,25.51H477.91l47-10.94A2,2,0,0,0,524.88,411.44Z"/><path class="cls-5" d="M666.08,358.24a28.9,28.9,0,1,0,28.9,28.9A28.9,28.9,0,0,0,666.08,358.24Zm0,34.57a5.67,5.67,0,1,1,5.67-5.67A5.67,5.67,0,0,1,666.08,392.81Z"/><path class="cls-2" d="M608.33,182.31H540a4,4,0,0,1-2.7,3.84l-.16,0-47.22,11H50.6a14.9,14.9,0,0,1-14.88-14.88H21.77a28.9,28.9,0,0,0,28.9,28.9H637.2A28.9,28.9,0,0,1,608.33,182.31Z"/><path class="cls-2" d="M637.23,153.41H50.67a28.9,28.9,0,0,0-28.9,28.9H35.72A14.9,14.9,0,0,1,50.6,167.43H490l47.3,11,.08,0a4,4,0,0,1,2.7,3.84h68.3a28.9,28.9,0,0,0,28.87,28.9h0a28.9,28.9,0,1,0,0-57.8Zm-5.67,28.9a5.67,5.67,0,1,1,5.67,5.67A5.67,5.67,0,0,1,631.56,182.31Z"/><path class="cls-5" d="M608.33,182.31H540a4,4,0,0,1-2.7,3.84l-.16,0-47.22,11H50.6a14.9,14.9,0,0,1-14.88-14.88H21.77a28.9,28.9,0,0,0,28.9,28.9H637.2A28.9,28.9,0,0,1,608.33,182.31Z"/><path class="cls-2" d="M637.23,153.41H50.67a28.9,28.9,0,0,0-28.9,28.9H35.72A14.9,14.9,0,0,1,50.6,167.43H490l47.3,11,.08,0a4,4,0,0,1,2.7,3.84h68.3a28.9,28.9,0,0,0,28.87,28.9h0a28.9,28.9,0,1,0,0-57.8Zm-5.67,28.9a5.67,5.67,0,1,1,5.67,5.67A5.67,5.67,0,0,1,631.56,182.31Z"/><path class="cls-2" d="M637.23,87H50.67a28.9,28.9,0,0,0,0,57.8H637.23a28.9,28.9,0,0,0,0-57.8Zm-99.9,32.74-.16,0-47.22,11H50.6a14.88,14.88,0,0,1,0-29.76H490l47.3,11,.08,0a4.08,4.08,0,0,1,0,7.68Zm55.27,17.14H567a9.35,9.35,0,0,1,0-18.7h25.57a9.35,9.35,0,0,1,0,18.7Z"/><path class="cls-5" d="M637.18,219.82H50.67a28.9,28.9,0,1,0,0,57.8H637.18a28.9,28.9,0,1,0,0-57.8Zm4.08,28.9a4.25,4.25,0,1,1-4.25-4.25A4.25,4.25,0,0,1,641.26,248.72Z"/><path class="cls-5" d="M677,286.26H638.54c-.45,0-.9,0-1.36,0H50.67a28.9,28.9,0,0,0,0,57.8H637.18a28.91,28.91,0,0,0,27.47-19.92h0V324a28.69,28.69,0,0,0,.95-3.8c1.09-4,3-9.89,5.47-12.32a18.17,18.17,0,0,1,8.4-4.7l.21-.07L680,303a8.66,8.66,0,0,0-3-16.77Zm-40,33.12a4.25,4.25,0,1,1,4.25-4.25A4.25,4.25,0,0,1,637,319.38Z"/></g><g id="Tekst"><text class="cls-6" transform="translate(526.09 435.36)"><tspan class="cls-7">P</tspan><tspan x="6.08" y="0">encil 1:1</tspan></text><text class="cls-6" transform="translate(526.09 400.49)"><tspan class="cls-7">P</tspan><tspan x="6.08" y="0">encil with o</tspan><tspan class="cls-8" x="63.72" y="0">ff</tspan><tspan x="70.61" y="0">set</tspan></text><text class="cls-9" transform="translate(684.58 344.03)">C<tspan class="cls-10" x="6.83" y="0">o</tspan><tspan class="cls-11" x="13.33" y="0">v</tspan><tspan class="cls-12" x="18.98" y="0">er with hinge</tspan></text><text class="cls-6" transform="translate(701.58 411.03)"><tspan class="cls-13">T</tspan><tspan class="cls-12" x="5.11" y="0">empl</tspan><tspan class="cls-14" x="30.79" y="0">a</tspan><tspan class="cls-15" x="36.53" y="0">t</tspan><tspan x="40.43" y="0">e </tspan><tspan class="cls-16" x="48.98" y="0">f</tspan><tspan x="52.33" y="0">or hinge</tspan></text><text class="cls-6" transform="translate(701.58 438.15)"><tspan class="cls-13">T</tspan><tspan class="cls-12" x="5.11" y="0">empl</tspan><tspan class="cls-14" x="30.79" y="0">a</tspan><tspan class="cls-15" x="36.53" y="0">t</tspan><tspan x="40.43" y="0">e nib case</tspan></text><text class="cls-6" transform="translate(701.58 467.31)"><tspan class="cls-17">N</tspan><tspan x="8.02" y="0">ib</tspan></text><text class="cls-9" transform="translate(684.58 274.59)">C<tspan class="cls-10" x="6.83" y="0">o</tspan><tspan class="cls-11" x="13.33" y="0">v</tspan><tspan class="cls-12" x="18.98" y="0">er</tspan></text><text class="cls-6" transform="translate(684.58 217.57)">Split se<tspan class="cls-18" x="35.66" y="0">c</tspan><tspan x="41.2" y="0">tion</tspan></text><text class="cls-6" transform="translate(684.58 142.57)"><tspan class="cls-19">B</tspan><tspan x="6.55" y="0">ot</tspan><tspan class="cls-20" x="17.11" y="0">t</tspan><tspan x="21.01" y="0">om &amp; Spa</tspan><tspan class="cls-21" x="68.48" y="0">r</tspan><tspan x="72.29" y="0">e nib case</tspan></text><text class="cls-6" transform="translate(677.58 78.4)">Back <tspan class="cls-20" x="25.84" y="0">c</tspan><tspan class="cls-10" x="31.14" y="0">o</tspan><tspan class="cls-21" x="37.64" y="0">v</tspan><tspan x="43.3" y="0">er</tspan></text></g></svg>